<svg width="426" height="150" viewBox="0 0 326 150" fill="none" xmlns="http://www.w3.org/2000/svg">
<path d="M0 0C27 0 27 0 33 3C39.4005 9.546 40.3471 15.5482 40.3125 24.3125C40.3286 25.1162 40.3447 25.92 40.3613 26.748C40.3685 35.616 38.2311 42.6169 32 49C29.6875 50.875 29.6875 50.875 28 52C28.5427 52.3029 29.0854 52.6059 29.6445 52.918C34.5867 55.812 37.8322 58.1228 39.5515 63.8311C40.4631 68.2394 40.2703 72.7646 40.3125 77.25C40.3415 78.2619 40.3705 79.2738 40.4004 80.3164C40.4547 86.7577 39.7573 91.6512 36 97C25.8158 106.923 14.9022 103 0 103C0 69.01 0 35.02 0 0ZM15 13C15 23.56 15 34.12 15 45C22.6937 44.9882 22.6937 44.9882 24.9766 41.5C26.2304 37.2121 26.441 33.4422 26.375 29C26.3866 28.2188 26.3982 27.4377 26.4102 26.6328C26.3858 21.8011 26.1019 17.9234 23 14C20.36 13.67 17.72 13.34 15 13ZM15 58C15 68.56 15 79.12 15 90C22.6918 89.9868 22.6918 89.9868 24.9805 86.5039C26.2355 82.1907 26.4041 78.4027 26.3125 73.9375C26.3157 73.1479 26.3189 72.3584 26.3223 71.5449C26.2831 67.2951 26.067 63.8239 24 60C20.7666 57.6586 19.2761 58 15 58Z" fill="white"/>
<path d="M46 0C72 0 72 0 80 4C86.3893 12.0276 85.5879 21.228 85 31C84.0851 37.396 81.7132 40.9623 76.7188 45.0039C75 46 75 46 72 46C72 46.66 72 47.32 72 48C72.5569 48.0825 73.1137 48.165 73.6875 48.25C77.6965 49.5502 80.039 51.3735 82.207 55.043C86.1394 64.0055 85.357 73.4299 85 83C80.38 83 75.76 83 71 83C70.951 81.5421 70.902 80.0841 70.8516 78.582C70.7765 76.6588 70.701 74.7357 70.625 72.8125C70.5941 71.8528 70.5631 70.8931 70.5312 69.9043C70.4926 68.9729 70.4539 68.0416 70.4141 67.082C70.3669 65.8016 70.3669 65.8016 70.3188 64.4954C69.9283 61.4387 69.2433 58.2433 67 56C63.535 55.505 63.535 55.505 60 55C60 64.24 60 73.48 60 83C55.38 83 50.76 83 46 83C46 55.61 46 28.22 46 0ZM60 13C60 22.24 60 31.48 60 41C66.605 41.7301 66.605 41.7301 69.4102 39.0664C71.5637 34.9128 71.5528 31.5459 71.4375 26.9375C71.4446 26.1351 71.4517 25.3326 71.459 24.5059C71.4232 21.1891 71.2415 18.5868 69.9727 15.5039C67.3416 13.2366 67.3416 13.2366 60 13Z" fill="white"/>
<path d="M283 0C287.62 0 292.24 0 297 0C298.338 3.34494 299.319 5.94773 300.035 9.36328C300.205 10.1683 300.374 10.9733 300.549 11.8027C300.718 12.631 300.888 13.4592 301.062 14.3125C301.236 15.1291 301.409 15.9457 301.588 16.7871C302.64 21.8454 303.427 26.8654 304 32C305.566 24.9843 307.1 17.9622 308.625 10.9375C308.854 9.88111 309.084 8.82473 309.32 7.73633C309.88 5.15759 310.44 2.5788 311 0C315.95 0 320.9 0 326 0C325.137 3.89279 324.274 7.78549 323.408 11.6777C322.669 15.0083 321.937 18.3404 321.211 21.6738C318.094 35.9112 318.094 35.9112 316.391 41.7422C312.125 56.7186 312.329 71.9197 312.188 87.3867C312.179 88.3404 312.17 89.2942 312.161 90.2768C312.148 92.0978 312.14 93.9189 312.138 95.7399C312.108 101.892 312.108 101.892 311 103C308.647 103.073 306.292 103.084 303.938 103.062C302.002 103.049 302.002 103.049 300.027 103.035C299.028 103.024 298.029 103.012 297 103C297.038 101.966 297.076 100.931 297.115 99.8655C298.139 66.4369 291.866 36.2903 283.487 4.10837C283 2 283 2 283 0Z" fill="white"/>
<path d="M247 0C257.56 0 268.12 0 279 0C279 4.29 279 8.58 279 13C273.06 13 267.12 13 261 13C261 23.56 261 34.12 261 45C265.95 45 270.9 45 276 45C276 49.29 276 53.58 276 58C271.05 58 266.1 58 261 58C261 72.85 261 87.7 261 103C256.38 103 251.76 103 247 103C247 69.01 247 35.02 247 0Z" fill="white"/>
<path d="M181 56C185.95 56 190.9 56 196 56C200.29 64.25 204.58 72.5 209 81C208.67 79.68 208.34 78.36 208 77C207.921 75.3401 207.892 73.6774 207.902 72.0156C207.906 71.0811 207.909 70.1465 207.912 69.1836C207.92 68.2155 207.929 67.2474 207.938 66.25C207.942 65.2664 207.947 64.2829 207.951 63.2695C207.963 60.8463 207.981 58.4232 208 56C212.29 56 216.58 56 221 56C221 71.51 221 87.02 221 103C216.05 103 211.1 103 206 103C201.71 94.42 197.42 85.84 193 77C193.33 78.32 193.66 79.64 194 81C194.08 82.7329 194.108 84.4685 194.098 86.2031C194.094 87.1828 194.091 88.1625 194.088 89.1719C194.08 90.1877 194.071 91.2034 194.062 92.25C194.058 93.2812 194.053 94.3125 194.049 95.375C194.037 97.9167 194.019 100.458 194 103C189.71 103 185.42 103 181 103C181 87.49 181 71.98 181 56ZM210 83C211 85 211 85 211 85L210 83Z" fill="white"/>
<path d="M227 0C231.62 0 236.24 0 241 0C241 33.99 241 67.98 241 103C236.38 103 231.76 103 227 103C227 69.01 227 35.02 227 0Z" fill="white"/>
<path d="M146 22C145.973 23.0318 145.945 24.0636 145.917 25.1267C144.635 51.7556 144.635 51.7556 156.645 74.4682C158.613 76.6922 160.094 79.1497 161.625 81.6875C163.529 84.7039 165.458 87.7006 167.426 90.6758C167.842 91.3097 168.258 91.9437 168.687 92.5969C169.505 93.8413 170.328 95.0822 171.157 96.3191C174 100.663 174 100.663 174 104C146.61 104 119.22 104 91 104C92.4573 100.357 93.2574 98.368 95.5039 95.4687C95.9928 94.8296 96.4817 94.1905 96.9854 93.532C97.5058 92.8614 98.0263 92.1909 98.5625 91.5C103.477 85.0644 108.235 78.5702 112.693 71.8054C114 70 114 70 116.01 67.7356C122.736 59.7295 123.145 52.7633 123 42.8125C123.008 41.3691 123.02 39.9257 123.035 38.4824C123.065 34.9875 123.046 31.4948 123 28C125.893 26.9906 128.789 25.9923 131.688 25C132.912 24.5707 132.912 24.5707 134.162 24.1328C134.958 23.8621 135.754 23.5914 136.574 23.3125C137.302 23.0611 138.03 22.8097 138.78 22.5508C141.256 21.9365 143.459 21.9062 146 22ZM133.438 29C132.24 29.3712 131.042 29.7425 129.809 30.125C128.418 30.5581 128.418 30.5581 127 31C126.996 31.8721 126.992 32.7442 126.988 33.6428C126.96 36.907 126.911 40.1693 126.847 43.4328C126.824 44.84 126.81 46.2472 126.804 47.6545C126.738 62.0606 126.738 62.0606 121 68C121.33 68.66 121.66 69.32 122 70C123.976 70.527 125.956 71.0457 127.953 71.4883C130 72 130 72 132.5 73.1875C137.73 74.8873 143.142 73.2774 148 71C147.408 67.8945 146.464 66.2095 144.488 63.7812C140.422 57.4718 141.214 49.7442 141.188 42.5C141.164 40.9947 141.139 39.4895 141.111 37.9844C141.049 34.3229 141.016 30.6619 141 27C138.524 27 135.758 28.279 133.438 29ZM110 83C109.133 84.208 108.259 85.4108 107.379 86.6094C102.47 92.914 102.47 92.914 99 100C121.44 100 143.88 100 167 100C164.754 94.3861 161.798 89.7862 158.5 84.75C157.906 83.827 157.311 82.904 156.699 81.9531C156.128 81.0765 155.557 80.2 154.969 79.2969C154.447 78.496 153.926 77.6952 153.389 76.8701C152.125 74.8744 152.125 74.8744 150 74C148.824 74.4744 147.649 74.9487 146.438 75.4375C138.729 78.4676 133.436 77.1868 126 74C117.211 71.9283 114.513 76.0678 110 83Z" fill="#C12939"/>
<path d="M181 0C194.2 0 207.4 0 221 0C221 3.96 221 7.92 221 12C216.71 12 212.42 12 208 12C208 19.59 208 27.18 208 35C212.29 35 216.58 35 221 35C221 38.96 221 42.92 221 47C207.8 47 194.6 47 181 47C181 43.04 181 39.08 181 35C185.62 35 190.24 35 195 35C195 27.41 195 19.82 195 12C190.38 12 185.76 12 181 12C181 8.04 181 4.08 181 0Z" fill="white"/>
<path d="M123 28C123.33 28 123.66 28 124 28C124.495 33.445 124.495 33.445 125 39C125.33 36.36 125.66 33.72 126 31C126.33 31 126.66 31 127 31C127.124 35.1442 127.215 39.2874 127.275 43.4329C127.3 44.8403 127.334 46.2476 127.377 47.6545C127.775 60.8552 127.775 60.8552 124.48 65.4023C123.662 66.2596 122.843 67.1168 122 68C122 68.33 122 68.66 122 69C123.217 69.2887 124.434 69.5775 125.688 69.875C128.918 70.6784 131.943 71.6627 135 73C131.99 73.9342 131.133 74.0445 128 73C128 73.66 128 74.32 128 75C127.276 74.9072 126.551 74.8144 125.805 74.7188C120.231 74.173 120.231 74.173 115.285 76.2891C113.7 78.448 112.37 80.6975 111 83C109.287 85.4642 107.515 87.885 105.75 90.3125C103.458 93.5146 101.185 96.7229 99 100C121.11 100 143.22 100 166 100C166 100.33 166 100.66 166 101C157.186 101.046 148.372 101.082 139.557 101.104C135.464 101.114 131.372 101.128 127.279 101.151C123.33 101.173 119.382 101.185 115.433 101.19C113.925 101.193 112.418 101.201 110.911 101.211C108.801 101.226 106.692 101.228 104.583 101.227C103.381 101.231 102.18 101.236 100.942 101.241C98 101 98 101 95 99C94.67 99.99 94.34 100.98 94 102C119.74 102 145.48 102 172 102C172.33 101.34 172.66 100.68 173 100C173.33 101.32 173.66 102.64 174 104C146.61 104 119.22 104 91 104C92.4573 100.357 93.2574 98.368 95.5039 95.4687C95.9928 94.8296 96.4817 94.1905 96.9854 93.532C97.5058 92.8614 98.0263 92.1909 98.5625 91.5C103.477 85.0644 108.235 78.5702 112.693 71.8054C114 70 114 70 116.01 67.7356C122.736 59.7295 123.145 52.7633 123 42.8125C123.008 41.3691 123.02 39.9257 123.035 38.4824C123.065 34.9875 123.046 31.4948 123 28Z" fill="#C13040"/>
<path d="M46 90C58.87 90 71.74 90 85 90C85 94.29 85 98.58 85 103C72.13 103 59.26 103 46 103C46 98.71 46 94.42 46 90Z" fill="white"/>
<path d="M123 0C130.59 0 138.18 0 146 0C145.67 5.61 145.34 11.22 145 17C142.086 18.0074 139.169 19.0061 136.25 20C135.425 20.2862 134.6 20.5723 133.75 20.8672C132.951 21.1379 132.152 21.4086 131.328 21.6875C130.595 21.9389 129.862 22.1902 129.106 22.4492C127 23 127 23 123 23C123 15.41 123 7.82 123 0ZM127 4C127 8.62 127 13.24 127 18C129.63 17.2884 129.63 17.2884 132.312 16.5625C133.299 16.2957 134.285 16.0288 135.301 15.7539C137.215 15.2192 139.114 14.6286 141 14C141 10.7 141 7.4 141 4C136.38 4 131.76 4 127 4Z" fill="#BF2F40"/>
<path d="M95 99C95.99 99.33 96.98 99.66 98 100C100.274 100.085 102.551 100.107 104.826 100.098C105.516 100.096 106.206 100.095 106.917 100.093C108.413 100.089 109.909 100.083 111.405 100.075C113.771 100.062 116.136 100.056 118.502 100.051C123.522 100.04 128.542 100.02 133.562 100C139.382 99.9764 145.202 99.956 151.022 99.9441C153.357 99.9376 155.691 99.9251 158.025 99.9124C159.451 99.9087 160.877 99.9054 162.303 99.9023C164.175 99.8945 164.175 99.8945 166.084 99.8865C169 100 169 100 171 101C171 101.66 171 102.32 171 103C145.26 103 119.52 103 93 103C93.66 101.68 94.32 100.36 95 99Z" fill="#D52035"/>
<path d="M142 24C142.99 24 143.98 24 145 24C145.33 36.21 145.66 48.42 146 61C144.68 61 143.36 61 142 61C140.501 58.0022 140.87 55.2499 140.867 51.9102C140.866 51.2098 140.865 50.5095 140.864 49.7879C140.864 48.306 140.866 46.824 140.87 45.342C140.875 43.075 140.87 40.8081 140.863 38.541C140.864 37.1016 140.865 35.6621 140.867 34.2227C140.868 32.9105 140.87 31.5983 140.871 30.2463C141 27 141 27 142 24Z" fill="#CC2836"/>
<path d="M130 1C134.95 1 139.9 1 145 1C145 6.28 145 11.56 145 17C139.902 18.6993 137.156 19.2063 132 19C133.125 17.0625 133.125 17.0625 135 15C138.188 14.25 138.188 14.25 141 14C141 10.37 141 6.74 141 3C137.37 3 133.74 3 130 3C130 2.34 130 1.68 130 1Z" fill="#C72538"/>
<path d="M140 26C138 27 136 28 134 29C133.299 29.3919 132.598 29.7838 131.875 30.1875C130 31 130 31 126 31C126 33.64 126 36.28 126 39C125.01 39.495 125.01 39.495 124 40C124 36.04 124 32.08 124 28C129.306 25.8777 134.391 23.9809 140 26Z" fill="#C42839"/>
<path d="M130 1C134.95 1 139.9 1 145 1C145 3.64 145 6.28 145 9C144.01 9.495 144.01 9.495 143 10C143 8.02 143 6.04 143 4C138.71 3.67 134.42 3.34 130 3C130 2.34 130 1.68 130 1Z" fill="#D62033"/>
<path d="M148 71C148 71.66 148 72.32 148 73C148.99 73.33 149.98 73.66 151 74C145.375 77 145.375 77 142 77C142 76.34 142 75.68 142 75C139.69 75 137.38 75 135 75C135 74.67 135 74.34 135 74C136.791 73.4969 138.583 72.9976 140.375 72.5C141.373 72.2216 142.37 71.9431 143.398 71.6562C146 71 146 71 148 71Z" fill="#C02C3D"/>
<path d="M117 68C118.65 68.33 120.3 68.66 122 69C122 69.66 122 70.32 122 71C123.65 71 125.3 71 127 71C127 71.66 127 72.32 127 73C125.542 73.027 124.083 73.0464 122.625 73.0625C121.813 73.0741 121.001 73.0857 120.164 73.0977C118 73 118 73 116 72C116.33 70.68 116.66 69.36 117 68Z" fill="#D91E2E"/>
<path d="M141 4C141.66 4 142.32 4 143 4C143.33 5.65 143.66 7.3 144 9C144.33 9 144.66 9 145 9C145 11.64 145 14.28 145 17C144.01 16.67 143.02 16.34 142 16C142 15.34 142 14.68 142 14C141.67 14 141.34 14 141 14C141 10.7 141 7.4 141 4Z" fill="#BD2D3A"/>
<path d="M181 0C181.33 0 181.66 0 182 0C182 2.97 182 5.94 182 9C184.475 9.99 184.475 9.99 187 11C187 11.33 187 11.66 187 12C185.02 12 183.04 12 181 12C181 8.04 181 4.08 181 0Z" fill="white"/>
<path d="M156 75C156.66 75.33 157.32 75.66 158 76C158.625 79.0625 158.625 79.0625 159 82C158.34 82 157.68 82 157 82C157 81.01 157 80.02 157 79C155.68 78.67 154.36 78.34 153 78C153 77.34 153 76.68 153 76C153.99 75.67 154.98 75.34 156 75Z" fill="#C7283B"/>
<path d="M283 0C287.29 0 291.58 0 296 0C294.515 1.485 294.515 1.485 293 3C289.5 2.6875 289.5 2.6875 286 2C285.01 2 284.02 2 283 2C283 1.34 283 0.68 283 0Z" fill="white"/>
<path d="M167 90C167.66 91.65 168.32 93.3 169 95C168.34 94.67 167.68 94.34 167 94C166.34 94.66 165.68 95.32 165 96C164.01 94.35 163.02 92.7 162 91C165 90 165 90 167 90Z" fill="#B72E3B"/>
<path d="M140 26C134.585 29.0769 134.585 29.0769 131.625 28.6875C130.821 28.3472 130.821 28.3472 130 28C133.195 24.8051 135.78 24.6434 140 26Z" fill="#D02232"/>
<path d="M126 53C126.33 53 126.66 53 127 53C127 55.64 127 58.28 127 61C125.68 61 124.36 61 123 61C123.547 57.6254 124.055 55.9176 126 53Z" fill="#D12A3E"/>
<path d="M159 83C160.32 83.33 161.64 83.66 163 84C163 85.32 163 86.64 163 88C162.34 88 161.68 88 161 88C161 87.34 161 86.68 161 86C160.34 86 159.68 86 159 86C159 85.01 159 84.02 159 83Z" fill="#D02136"/>
</svg>
